<?xml version="1.0" standalone="no"?>
<!DOCTYPE svg PUBLIC "-//W3C//DTD SVG 20010904//EN"
 "http://www.w3.org/TR/2001/REC-SVG-20010904/DTD/svg10.dtd">
<svg version="1.0" xmlns="http://www.w3.org/2000/svg"
 width="500.000000pt" height="500.000000pt" viewBox="0 0 500.000000 500.000000"
 preserveAspectRatio="xMidYMid meet">
<metadata>
Created by potrace 1.11, written by Peter Selinger 2001-2013
</metadata>
<g transform="translate(0.000000,500.000000) scale(0.100000,-0.100000)"
fill="#000000" stroke="none">
<path d="M0 2500 l0 -2500 2500 0 2500 0 0 2500 0 2500 -2500 0 -2500 0 0
-2500z m3058 1999 c173 -18 374 -74 503 -139 104 -53 237 -150 323 -236 327
-327 438 -790 335 -1393 -52 -309 -142 -591 -269 -846 -129 -261 -241 -424
-388 -569 l-60 -59 166 -194 c92 -106 168 -197 169 -201 2 -8 -476 -417 -487
-417 -4 0 -82 90 -175 200 -92 110 -171 204 -176 209 -5 5 -37 -6 -76 -27
-290 -151 -569 -217 -925 -217 -459 0 -810 127 -1064 386 -167 169 -269 365
-326 627 -20 90 -22 132 -23 347 0 255 6 320 51 545 112 555 327 999 649 1334
350 364 810 593 1305 650 109 12 356 13 468 0z"/>
<path d="M2570 3853 c-283 -30 -560 -178 -757 -405 -160 -184 -287 -447 -368
-763 -61 -239 -79 -368 -79 -580 0 -164 3 -202 22 -280 87 -345 327 -540 691
-561 124 -7 264 11 386 50 106 34 114 39 94 63 -186 217 -271 327 -263 339 12
18 465 404 473 404 4 0 72 -76 150 -170 78 -93 145 -170 149 -170 13 0 123
180 178 290 154 310 247 781 214 1091 -44 414 -251 642 -625 688 -86 10 -190
12 -265 4z"/>
</g>
</svg>
