<svg viewBox="0 0 65 81.3">
    <g fill="none" stroke="#000" stroke-linejoin="round" stroke-miterlimit="10" stroke-width="2">
        <path d="M62.9 7.6l-5.5-5.5c-.4-.4-1-.6-1.5-.6H3.7c-1.2 0-2.2 1-2.2 2.2v57.6c0 1.2 1 2.2 2.2 2.2h57.6c1.2 0 2.2-1 2.2-2.2V9.2c0-.6-.2-1.2-.6-1.6z"/>
        <path d="M15.4 1.5v16.3c0 1 .8 1.7 1.7 1.7h30.8c1 0 1.7-.8 1.7-1.7V1.5H15.4z"/>
        <path d="M41.2 5.5h4.5v10h-4.5z"/>
        <circle cx="32.5" cy="37" r="10.6"/>
        <path d="M33.6 35.1h-2.1c-.5 0-.9.4-.9.9v2.1c0 .5.4.9.9.9h2.1c.5 0 .9-.4.9-.9V36c-.1-.6-.5-.9-.9-.9zm5.6 4.1v-4.4M14.5 53.1H6.7c-.4 0-.7.3-.7.7v3.8c0 .4.3.7.7.7h7.8c.4 0 .7-.3.7-.7v-3.8c.1-.4-.3-.7-.7-.7zm-3.9 0v5.2"/>
    </g>
</svg>
