<svg xmlns="http://www.w3.org/2000/svg" xmlns:xlink="http://www.w3.org/1999/xlink" width="100" height="100">
    <defs>
        <symbol xmlns="http://www.w3.org/2000/svg" xmlns:xlink="http://www.w3.org/1999/xlink" id="a" viewBox="0 0 100 125">
            <path d="M50 11.8l1.8 1.5S55 16 60.6 19a60 60 0 0 0 22 7l2.4.3.1 2.4a73 73 0 0 1-13.5 42.5 55.7 55.7 0 0 1-20.4 16.5l-1.2.6-1.2-.6c-8.2-4-15-9.5-20.4-16.5a73 73 0 0 1-13.5-42.5v-2.4l2.5-.2a64 64 0 0 0 22-7c5.5-3 8.8-5.8 8.8-5.8l1.8-1.6m0-3a3 3 0 0 0-2 .8L46.4 11S43 13.6 38 16.4A57.3 57.3 0 0 1 17 23l-2.3.3a3 3 0 0 0-2.7 2.8l-.1 2.4c0 .5-.5 11.2 3.6 24a59.7 59.7 0 0 0 32 37.9l1.2.6a3 3 0 0 0 2.6 0l1.2-.6C61 86.3 68.3 80.4 74 73c4.5-5.9 8-12.7 10.5-20.3 4-12.9 3.7-23.6 3.6-24v-2.5a3 3 0 0 0-2.8-2.8L83 23a57.3 57.3 0 0 1-21-6.7c-5-2.8-8.2-5.4-8.3-5.4L52 9.5a3 3 0 0 0-1.9-.7z"/>
            <path d="M63.1 35.4l5.9 5.8-23.4 23.4-5.8-5.8L31 50l5.9-5.8 8.7 8.7 17.5-17.5m0-3a3 3 0 0 0-2.1.9L45.6 48.7 39 42a3 3 0 0 0-4.2 0l-5.9 6a3 3 0 0 0 0 4.2l8.8 8.8 5.8 5.8a3 3 0 0 0 4.2 0l23.4-23.3a3 3 0 0 0 0-4.3l-5.9-5.8a3 3 0 0 0-2-.9z"/>
        </symbol>
    </defs>
    <use x="-8.5" y="-3.5" transform="translate(-11.5 -4.1) scale(1.48373)" xlink:href="#a"/>
</svg>
