<svg xmlns="http://www.w3.org/2000/svg" xmlns:cc="http://creativecommons.org/ns#" xmlns:dc="http://purl.org/dc/elements/1.1/" xmlns:inkscape="http://www.inkscape.org/namespaces/inkscape" xmlns:rdf="http://www.w3.org/1999/02/22-rdf-syntax-ns#" xmlns:sodipodi="http://sodipodi.sourceforge.net/DTD/sodipodi-0.dtd" xmlns:svg="http://www.w3.org/2000/svg" x="0px" y="0px" version="1.1" viewBox="0 0 100 125">
    <g transform="translate(0,-952.36218)">
        <path fill="#000000" fill-opacity="1" stroke="none" marker="none" d="m 46.960504,958.36218 c -18.201642,0 -33.098095,14.99826 -35.590683,34.28125 l -1.5922147,-3.1875 a 1.9982728,2.0001996 0 0 0 -1.9356336,-1.125 1.9982728,2.0001996 0 0 0 -1.6234347,2.90625 l 4.995184,10.00002 a 1.9982728,2.0001996 0 0 0 3.371748,0.3437 l 6.993257,-8.99997 a 2.0139254,2.0158672 0 1 0 -3.184429,-2.46875 l -3.18443,4.09375 c 1.839497,-18.02111 15.437038,-31.84375 31.750636,-31.84375 a 1.9982734,2.0002002 0 1 0 0,-4 z m -2.185393,16 a 1.9982732,2.0002 0 0 0 -1.810754,2 l 0,4.40625 c -1.146649,0.27739 -2.319522,0.70179 -3.527849,1.21875 l -3.05955,-3.0625 a 1.9982732,2.0002 0 0 0 -2.80979,0 l -6.993257,7 a 1.9982732,2.0002 0 0 0 -0.1561,2.6875 l 3.18443,4 c -0.442113,0.88388 -0.800997,1.81615 -1.092697,2.75 l -4.526885,0 a 1.9982732,2.0002 0 0 0 -1.998073,2 l 0,10.00002 a 1.9982732,2.0002 0 0 0 1.998073,2 l 4.433226,0 c 0.275562,1.1413 0.706083,2.2969 1.217576,3.5 l -3.05955,3.0625 a 1.9982732,2.0002 0 0 0 0,2.8437 l 6.993257,7 a 1.9982732,2.0002 0 0 0 2.80979,0 l 3.05955,-3.0625 c 1.208294,0.5169 2.381202,0.9414 3.527849,1.2188 l 0,4.4375 a 1.9982732,2.0002 0 0 0 1.998073,2 l 4.995184,0 4.995183,0 a 1.9982732,2.0002 0 0 0 1.998074,-2 l 0,-4.4375 c 1.146646,-0.2774 2.319554,-0.7019 3.527848,-1.2188 l 3.05955,3.0625 a 1.9982732,2.0002 0 0 0 2.809791,0 l 6.993256,-7 a 1.9982732,2.0002 0 0 0 0,-2.8437 l -3.059549,-3.0625 c 0.511492,-1.2031 0.942013,-2.3587 1.217576,-3.5 l 4.433225,0 a 1.9982732,2.0002 0 0 0 1.998073,-2 l 0,-10.00002 a 1.9982732,2.0002 0 0 0 -1.998073,-2 l -4.526885,0 c -0.2917,-0.93385 -0.650584,-1.86612 -1.092697,-2.75 l 3.18443,-4 a 1.9982732,2.0002 0 0 0 -0.1561,-2.6875 l -6.993256,-7 a 1.9982732,2.0002 0 0 0 -2.809791,0 l -3.05955,3.0625 c -1.208327,-0.51696 -2.3812,-0.94136 -3.527848,-1.21875 l 0,-4.40625 a 1.9982732,2.0002 0 0 0 -1.998074,-2 l -4.995183,0 -4.995184,0 a 1.9982732,2.0002 0 0 0 -0.187319,0 z m 2.185393,4 2.99711,0 2.99711,0 0,4 a 1.9982732,2.0002 0 0 0 1.529775,1.9375 c 2.040859,0.50853 4.172856,0.99197 5.432262,1.75 a 1.9982732,2.0002 0 0 0 2.435152,-0.28125 l 2.591251,-2.59375 4.308346,4.3125 -2.872231,3.625 a 1.9982732,2.0002 0 0 0 -0.156099,2.28125 c 0.934867,1.55618 1.3095,2.5475 1.779534,4.4375 a 1.9982732,2.0002 0 0 0 1.935634,1.53125 l 3.996146,0 0,6.00002 -3.996146,0 a 1.9982732,2.0002 0 0 0 -1.935634,1.5 c -0.508044,2.0429 -1.022267,4.2081 -1.779534,5.4687 a 1.9982732,2.0002 0 0 0 0.312199,2.4375 l 2.591251,2.5938 -4.183466,4.1562 -2.591251,-2.5937 a 1.9982732,2.0002 0 0 0 -2.435152,-0.2813 c -1.259478,0.758 -3.391439,1.2415 -5.432262,1.75 a 1.9982732,2.0002 0 0 0 -1.529775,1.9688 l 0,4 -2.99711,0 -2.99711,0 0,-4 a 1.9982732,2.0002 0 0 0 -1.529775,-1.9688 c -2.040824,-0.5085 -4.172785,-0.992 -5.432262,-1.75 a 1.9982732,2.0002 0 0 0 -2.435152,0.2813 l -2.591252,2.5937 -4.183466,-4.1562 2.591251,-2.5938 a 1.9982732,2.0002 0 0 0 0.312199,-2.4375 c -0.757266,-1.2606 -1.27149,-3.4258 -1.779534,-5.4687 a 1.9982732,2.0002 0 0 0 -1.935633,-1.5 l -3.996147,0 0,-6.00002 3.996147,0 a 1.9982732,2.0002 0 0 0 1.935633,-1.53125 c 0.470034,-1.89 0.844668,-2.88132 1.779534,-4.4375 a 1.9982732,2.0002 0 0 0 -0.156099,-2.28125 l -2.872231,-3.625 4.308346,-4.3125 2.591252,2.59375 a 1.9982732,2.0002 0 0 0 2.435152,0.28125 c 1.259405,-0.75803 3.391402,-1.24147 5.432262,-1.75 a 1.9982732,2.0002 0 0 0 1.529775,-1.9375 l 0,-4 z m 2.99711,12 c -6.597367,0 -11.988441,5.39626 -11.988441,12.00002 0,6.6037 5.391074,12 11.988441,12 6.597366,0 11.98844,-5.3963 11.98844,-12 0,-6.60376 -5.391074,-12.00002 -11.98844,-12.00002 z m 0,4 c 4.437688,0 7.992293,3.55802 7.992293,8.00002 0,4.4419 -3.554605,8 -7.992293,8 -4.437688,0 -7.992294,-3.5581 -7.992294,-8 0,-4.442 3.554606,-8.00002 7.992294,-8.00002 z m 36.777038,8.00002 a 1.9982728,2.0001996 0 0 0 -1.404895,0.75 l -6.993257,9 a 2.0139406,2.0158825 0 1 0 3.184429,2.4687 l 3.21565,-4.125 c -1.800715,18.0683 -15.439164,31.9063 -31.781855,31.9063 a 1.9982734,2.0002002 0 1 0 0,4 c 18.213095,0 33.112165,-15.012 35.590682,-34.3125 l 1.592215,3.1875 a 1.9982728,2.0001996 0 1 0 3.559068,-1.7813 l -4.995183,-10 a 1.9982728,2.0001996 0 0 0 -1.966854,-1.0937 z" display="inline" overflow="visible" style="text-indent:0;text-transform:none;direction:ltr;block-progression:tb;baseline-shift:baseline;color:#000000;enable-background:accumulate;" visibility="visible"/>
    </g>
</svg>
