<svg xmlns="http://www.w3.org/2000/svg" xmlns:xlink="http://www.w3.org/1999/xlink" x="0" y="0" enable-background="new 0 0 100 100" version="1.1" viewBox="0 0 100 125" xml:space="preserve">
    <path d="M73.759,31.69L84.49,52.111c0,0-1.179,2.614-3.949,5.59c-2.013,2.16-4.621,4.024-4.621,4.024L56.169,39.815 c0,0-0.818-0.895-2.16-1.044c-0.988-0.11-2.832,0.596-2.832,0.596l-11.179,6.112c0,0-2.612,1.816-4.472-0.819 c-1.789-2.534,1.416-4.77,1.416-4.77s10.062-8.272,16.694-11.329c3.308-1.524,6.335-0.969,8.422,0.149s5.443,3.471,7.081,4.1 C71.075,33.554,73.759,31.69,73.759,31.69z"/>
    <path d="M94.354,48.29L82.518,26.224c-0.312-0.581-1.035-0.799-1.615-0.487l-4.576,2.415c-0.58,0.312-0.798,1.035-0.487,1.616 l11.838,22.065c0.312,0.58,1.034,0.799,1.615,0.488l4.575-2.416C94.448,49.594,94.666,48.87,94.354,48.29z M89.781,48.571 c-0.927,0-1.676-0.75-1.676-1.676c0-0.926,0.749-1.678,1.676-1.678c0.926,0,1.678,0.752,1.678,1.678 C91.459,47.82,90.707,48.571,89.781,48.571z"/>
    <path d="M26.31,60.463c-0.072-0.039-1.797-0.993-4.822-3.714c-1.76-1.582-3.682-4.366-3.763-4.484 c-0.252-0.366-0.279-0.843-0.07-1.235l10.632-19.975c0.284-0.531,0.922-0.768,1.484-0.55l0,0c0.001,0,0.571,0.21,1.881,0.461 c1.346,0.259,2.386-0.047,4.109-0.557c0.339-0.1,0.698-0.207,1.082-0.313c1.006-0.285,2.049-0.867,3.154-1.484 c1.311-0.732,2.666-1.489,4.176-1.878c3.313-0.852,5.315,1.569,5.398,1.673l-1.848,1.508c-0.046-0.054-1.153-1.334-2.956-0.872 c-1.212,0.312-2.429,0.993-3.607,1.65c-1.178,0.658-2.395,1.338-3.671,1.697c-0.373,0.105-0.722,0.208-1.052,0.306 c-1.855,0.548-3.319,0.98-5.234,0.612c-0.514-0.098-0.932-0.193-1.265-0.277l-9.83,18.465c0.631,0.864,1.874,2.487,2.974,3.479 c2.82,2.534,4.355,3.383,4.37,3.392L26.31,60.463z"/>
    <path d="M58.998,78.492c-1.516,0-2.521-0.875-2.636-0.978l0.801-0.884l0.788-0.895c0.312,0.266,1.453,0.993,2.98-0.778 c1.563-1.813,0.364-3.692,0.353-3.71l1.995-1.307c0.766,1.169,1.637,4.047-0.542,6.574c-1.061,1.229-2.237,1.892-3.5,1.969 C59.156,78.489,59.077,78.492,58.998,78.492z"/>
    <path d="M66.146,73.606c-1.14,0-2.076-0.434-2.575-0.662c-1.127-0.521-2.87-2.368-3.207-2.732c-0.447-0.482-0.419-1.238,0.064-1.685 c0.483-0.448,1.237-0.42,1.685,0.064c0.821,0.885,1.993,1.973,2.458,2.187c1.078,0.497,2.069,0.813,3.29-0.37 c1.503-1.455,0.218-3.419-0.015-3.745l-6.881-7.327c-0.45-0.479-0.427-1.234,0.053-1.684c0.479-0.451,1.234-0.428,1.686,0.052 l6.931,7.378c0.03,0.031,0.057,0.063,0.082,0.099c1.02,1.348,2.29,4.532-0.195,6.94C68.344,73.263,67.162,73.606,66.146,73.606z"/>
    <path d="M73.405,69.648c-1.737,0-3.145-0.818-3.825-1.472l-3.661-3.587l1.668-1.704l3.653,3.577 c0.165,0.152,1.838,1.597,4.077,0.212c0.929-0.575,1.495-1.211,1.639-1.836c0.142-0.615-0.153-1.091-0.166-1.111l1.974-1.34 c0.09,0.13,0.866,1.311,0.533,2.906c-0.272,1.312-1.189,2.457-2.725,3.408C75.459,69.392,74.38,69.648,73.405,69.648z"/>
    <path d="M32.292,65.333c-1.208,1.209-3.166,1.209-4.375,0l0,0c-1.207-1.208-1.207-3.166,0-4.373l1.476-1.476 c1.208-1.209,3.166-1.209,4.374,0l0,0c1.208,1.208,1.208,3.164,0,4.373L32.292,65.333z"/>
    <path d="M38.329,70.302c-1.207,1.209-3.166,1.209-4.374,0l0,0c-1.207-1.207-1.207-3.166,0-4.374l4.849-4.849 c1.207-1.207,3.166-1.207,4.374,0l0,0c1.208,1.209,1.207,3.167,0,4.373L38.329,70.302z"/>
    <path d="M45.259,75.022c-1.208,1.207-3.166,1.207-4.374,0l0,0c-1.208-1.209-1.208-3.168,0-4.375l6.152-6.153 c1.208-1.206,3.167-1.206,4.374,0l0,0c1.208,1.209,1.208,3.167,0,4.375L45.259,75.022z"/>
    <path d="M52.44,78.996c-1.209,1.208-3.167,1.208-4.375,0l0,0c-1.208-1.207-1.208-3.165,0-4.373l3.209-3.209 c1.207-1.207,3.166-1.208,4.373,0l0,0c1.208,1.208,1.208,3.166,0,4.374L52.44,78.996z"/>
    <circle cx="11.147" cy="47.152" r="1.677"/>
    <g>
        <path d="M19.224,27.351c0.19,0,0.384,0.046,0.563,0.143l2.925,1.643c0.58,0.312,0.797,1.036,0.484,1.615L12.965,50.137 c-0.215,0.398-0.625,0.626-1.05,0.626c-0.19,0-0.385-0.047-0.565-0.143l-2.924-1.643c-0.581-0.312-0.797-1.036-0.485-1.616 l10.231-19.383C18.388,27.579,18.799,27.351,19.224,27.351 M19.224,24.966c-1.319,0-2.525,0.721-3.151,1.881l-0.005,0.009 l-0.005,0.01L5.836,46.241c-0.449,0.838-0.545,1.802-0.272,2.715c0.272,0.906,0.877,1.654,1.707,2.106l2.912,1.636L10.2,52.71 l0.019,0.01c0.521,0.278,1.106,0.427,1.696,0.427c1.318,0,2.525-0.72,3.15-1.88l0.005-0.01l0.005-0.01l10.227-19.375 c0.923-1.727,0.28-3.882-1.436-4.823l-2.911-1.635l-0.018-0.01l-0.018-0.01C20.399,25.115,19.812,24.966,19.224,24.966 L19.224,24.966z"/>
    </g>
    <path d="M62.58,71.984c-0.317,0-0.635-0.126-0.869-0.376l-6.932-7.377c-0.45-0.481-0.428-1.236,0.053-1.686 c0.48-0.451,1.235-0.428,1.686,0.052l6.931,7.38c0.451,0.479,0.428,1.234-0.052,1.684C63.166,71.878,62.872,71.984,62.58,71.984z"/>
</svg>
