<svg xmlns="http://www.w3.org/2000/svg" xmlns:cc="http://creativecommons.org/ns#" xmlns:dc="http://purl.org/dc/elements/1.1/" xmlns:inkscape="http://www.inkscape.org/namespaces/inkscape" xmlns:rdf="http://www.w3.org/1999/02/22-rdf-syntax-ns#" xmlns:sodipodi="http://sodipodi.sourceforge.net/DTD/sodipodi-0.dtd" xmlns:svg="http://www.w3.org/2000/svg" x="0px" y="0px" version="1.1" viewBox="0 0 48 60.00000125">
    <g transform="translate(0,-1004.3622)">
        <g fill="#000000" fill-opacity="1" style="">
            <path d="m 31.410156,1031.2812 a 0.75007506,0.75007506 0 0 0 -0.443359,0.1739 l -9.527344,7.9433 -3.958984,-4.5371 a 0.75007506,0.75007506 0 0 0 -1.3125,0.4317 l -0.361328,4.4824 a 0.75007506,0.75007506 0 0 0 0.18164,0.5547 l 4.441407,5.0898 a 0.75007506,0.75007506 0 0 0 1.044921,0.084 l 10.089844,-8.4141 a 0.75007506,0.75007506 0 0 0 0.267578,-0.5156 l 0.361328,-4.4824 a 0.75007506,0.75007506 0 0 0 -0.783203,-0.8106 z m -0.855468,2.4688 -0.19336,2.3906 -9.283203,7.7422 -3.751953,-4.3008 0.193359,-2.3945 3.271485,3.75 a 0.75007506,0.75007506 0 0 0 1.044922,0.084 l 8.71875,-7.2715 z" style="color:#000000;font-style:normal;font-variant:normal;font-weight:normal;font-stretch:normal;font-size:medium;line-height:normal;font-family:sans-serif;text-indent:0;text-align:start;text-decoration:none;text-decoration-line:none;text-decoration-style:solid;text-decoration-color:#000000;letter-spacing:normal;word-spacing:normal;text-transform:none;direction:ltr;block-progression:tb;writing-mode:lr-tb;baseline-shift:baseline;text-anchor:start;white-space:normal;clip-rule:nonzero;display:inline;overflow:visible;visibility:visible;opacity:1;isolation:auto;mix-blend-mode:normal;color-interpolation:sRGB;color-interpolation-filters:linearRGB;solid-color:#000000;solid-opacity:1;fill:#000000;fill-opacity:1;fill-rule:evenodd;stroke:none;stroke-width:1.50000012;stroke-linecap:round;stroke-linejoin:round;stroke-miterlimit:4;stroke-dasharray:none;stroke-dashoffset:0;stroke-opacity:1;color-rendering:auto;image-rendering:auto;shape-rendering:auto;text-rendering:auto;enable-background:accumulate"/>
            <path d="m 38,1050.8613 c 1.859441,0 3.380859,-1.5194 3.380859,-3.3789 l 0,-19.2851 c 0,-1.8595 -1.521418,-3.3789 -3.380859,-3.3789 l -28,0 c -1.8594411,0 -3.3808594,1.5194 -3.3808594,3.3789 l 0,19.2851 c 0,1.8595 1.5214183,3.3789 3.3808594,3.3789 l 28,0 z m 0,-1.5 -28,0 c -1.0543821,0 -1.8808594,-0.8245 -1.8808594,-1.8789 l 0,-19.2851 c 0,-1.0544 0.8264773,-1.8789 1.8808594,-1.8789 l 28,0 c 1.054383,0 1.880859,0.8245 1.880859,1.8789 l 0,19.2851 c 0,1.0544 -0.826476,1.8789 -1.880859,1.8789 z" style="color:#000000;font-style:normal;font-variant:normal;font-weight:normal;font-stretch:normal;font-size:medium;line-height:normal;font-family:sans-serif;text-indent:0;text-align:start;text-decoration:none;text-decoration-line:none;text-decoration-style:solid;text-decoration-color:#000000;letter-spacing:normal;word-spacing:normal;text-transform:none;direction:ltr;block-progression:tb;writing-mode:lr-tb;baseline-shift:baseline;text-anchor:start;white-space:normal;clip-rule:nonzero;display:inline;overflow:visible;visibility:visible;opacity:1;isolation:auto;mix-blend-mode:normal;color-interpolation:sRGB;color-interpolation-filters:linearRGB;solid-color:#000000;solid-opacity:1;fill:#000000;fill-opacity:1;fill-rule:nonzero;stroke:none;stroke-width:1.49999988;stroke-linecap:round;stroke-linejoin:round;stroke-miterlimit:4;stroke-dasharray:none;stroke-dashoffset:0;stroke-opacity:1;color-rendering:auto;image-rendering:auto;shape-rendering:auto;text-rendering:auto;enable-background:accumulate"/>
            <path d="m 23.462891,1005.8613 a 0.75007494,0.75007494 0 0 0 -0.25,0.049 c -6.359502,0.1356 -11.5,5.0907 -11.5,11.2871 l 0,7.8886 a 0.75007494,0.75007494 0 1 0 1.5,0 l 0,-7.8886 c 0,-5.4456 4.543019,-9.836 10.25,-9.836 l 1.074218,0 c 5.706981,0 10.25,4.3904 10.25,9.836 l 0,8.1465 a 0.75007494,0.75007494 0 1 0 1.5,0 l 0,-8.1465 c 0,-6.2823 -5.268378,-11.336 -11.75,-11.336 l -1.074218,0 z m 0.908203,2.9746 c -3.583478,0 -6.010747,1.1429 -7.515625,2.7383 -1.504879,1.5954 -2.074547,3.5761 -2.197266,5.1973 a 0.75007494,0.75007494 0 0 0 -0.002,0.057 l 0,8.459 a 0.75007494,0.75007494 0 1 0 1.5,0 l 0,-8.4121 c 0.104569,-1.3602 0.587082,-2.9951 1.791016,-4.2715 1.206633,-1.2792 3.15083,-2.2676 6.423828,-2.2676 4.00731,0 7.388672,2.95 7.388672,6.4922 l 0,8.4961 a 0.75007494,0.75007494 0 1 0 1.5,0 l 0,-8.4961 c 0,-4.4802 -4.143408,-7.9922 -8.888672,-7.9922 z" style="color:#000000;font-style:normal;font-variant:normal;font-weight:normal;font-stretch:normal;font-size:medium;line-height:normal;font-family:sans-serif;text-indent:0;text-align:start;text-decoration:none;text-decoration-line:none;text-decoration-style:solid;text-decoration-color:#000000;letter-spacing:normal;word-spacing:normal;text-transform:none;direction:ltr;block-progression:tb;writing-mode:lr-tb;baseline-shift:baseline;text-anchor:start;white-space:normal;clip-rule:nonzero;display:inline;overflow:visible;visibility:visible;opacity:1;isolation:auto;mix-blend-mode:normal;color-interpolation:sRGB;color-interpolation-filters:linearRGB;solid-color:#000000;solid-opacity:1;fill:#000000;fill-opacity:1;fill-rule:nonzero;stroke:none;stroke-width:1.49999988;stroke-linecap:round;stroke-linejoin:round;stroke-miterlimit:4;stroke-dasharray:none;stroke-dashoffset:0;stroke-opacity:1;color-rendering:auto;image-rendering:auto;shape-rendering:auto;text-rendering:auto;enable-background:accumulate"/>
        </g>
    </g>
</svg>
