<svg xmlns="http://www.w3.org/2000/svg" xmlns:xlink="http://www.w3.org/1999/xlink" x="0px" y="0px" baseProfile="tiny" version="1.2" viewBox="0 0 100 125" xml:space="preserve">
    <path d="M72.5,50c-0.845,0-1.679,0.051-2.5,0.142V7.5C70,6.119,68.881,5,67.5,5h-60C6.119,5,5,6.119,5,7.5v60  C5,68.881,6.119,70,7.5,70h42.642C50.051,70.821,50,71.655,50,72.5C50,84.907,60.094,95,72.5,95S95,84.907,95,72.5  S84.906,50,72.5,50z M50,10h15v15H50V10z M50,30h15v15H50V30z M25,65H10V50h15V65z M25,45H10V30h15V45z M25,25H10V10h15V25z M45,65  H30V50h15V65z M45,45H30V30h15V45z M45,25H30V10h15V25z M50,65V50h15v1.29C58.618,53.554,53.554,58.618,51.29,65H50z M72.5,90  C62.851,90,55,82.149,55,72.5S62.851,55,72.5,55S90,62.851,90,72.5S82.149,90,72.5,90z"/>
    <path d="M82.5,70H75v-7.5c0-1.381-1.119-2.5-2.5-2.5S70,61.119,70,62.5v5V70h-2.5h-5c-1.381,0-2.5,1.119-2.5,2.5s1.119,2.5,2.5,2.5  H70v7.5c0,1.381,1.119,2.5,2.5,2.5s2.5-1.119,2.5-2.5V75h7.5c1.381,0,2.5-1.119,2.5-2.5S83.881,70,82.5,70z"/>
</svg>
