<?xml version="1.0" encoding="UTF-8"?>
<svg xmlns="http://www.w3.org/2000/svg" enable-background="new 0 0 100 100" version="1.1" viewBox="0 0 100 125" xml:space="preserve">
    <style type="text/css">
        .st0{fill:none;stroke:#000000;stroke-width:8;stroke-miterlimit:10;} .st1{fill:none;stroke:#000000;stroke-width:8;stroke-linecap:round;stroke-miterlimit:10;} .st2{fill:none;stroke:#000000;stroke-width:6;stroke-miterlimit:10;} .st3{fill:none;stroke:#000000;stroke-width:6;stroke-linecap:round;stroke-miterlimit:10;} .st4{fill:none;stroke:#000000;stroke-width:4;stroke-miterlimit:10;} .st5{fill:none;stroke:#000000;stroke-width:4;stroke-linecap:round;stroke-miterlimit:10;} .st6{fill:none;stroke:#000000;stroke-width:2;stroke-miterlimit:10;} .st7{fill:none;stroke:#000000;stroke-width:2;stroke-linecap:round;stroke-miterlimit:10;} .st8{fill:none;stroke:#000000;stroke-width:8;stroke-linecap:round;stroke-linejoin:round;stroke-miterlimit:10;} .st9{fill:none;stroke:#000000;stroke-width:6;stroke-linecap:round;stroke-linejoin:round;stroke-miterlimit:10;} .st10{fill:none;stroke:#000000;stroke-width:4;stroke-linecap:round;stroke-linejoin:round;stroke-miterlimit:10;} .st11{fill:none;stroke:#000000;stroke-width:2;stroke-linecap:round;stroke-linejoin:round;stroke-miterlimit:10;} .st12{fill:none;stroke:#000000;stroke-width:8;} .st13{fill:none;stroke:#000000;stroke-width:6;} .st14{fill:none;stroke:#000000;stroke-width:4;} .st15{fill:none;stroke:#000000;stroke-width:2;} .st16{fill:none;stroke:#000000;stroke-width:8;stroke-linecap:round;stroke-linejoin:round;} .st17{fill:none;stroke:#000000;stroke-width:6;stroke-linecap:round;stroke-linejoin:round;} .st18{fill:none;stroke:#000000;stroke-width:4;stroke-linecap:round;stroke-linejoin:round;} .st19{fill:none;stroke:#000000;stroke-width:2;stroke-linecap:round;stroke-linejoin:round;} .st20{fill:none;stroke:#000000;stroke-width:8;stroke-linejoin:round;stroke-miterlimit:10;} .st21{fill:none;stroke:#000000;stroke-width:6;stroke-linejoin:round;stroke-miterlimit:10;} .st22{fill:none;stroke:#000000;stroke-width:4;stroke-linejoin:round;stroke-miterlimit:10;} .st23{fill:none;stroke:#000000;stroke-width:2;stroke-linejoin:round;stroke-miterlimit:10;} .st24{fill:none;stroke:#050505;stroke-width:8;stroke-linejoin:round;stroke-miterlimit:10;} .st25{fill:none;stroke:#050505;stroke-width:6;stroke-linejoin:round;stroke-miterlimit:10;} .st26{fill:none;stroke:#050505;stroke-width:4;stroke-linejoin:round;stroke-miterlimit:10;} .st27{fill:none;stroke:#050505;stroke-width:2;stroke-linejoin:round;stroke-miterlimit:10;} .st28{fill:#050505;}
    </style>
    <path d="m71.7 19l7.1 8h-4.4c-6.5 0-12.7 2.8-17.1 7.6l-24.1 26.8c-3.2 3.5-7.8 5.6-12.6 5.6h-6.5v6h6.5c6.5 0 12.7-2.8 17.1-7.6l24.1-26.8c3.2-3.5 7.8-5.6 12.6-5.6h5.3l-8 9.1 4.5 4 13.7-15.5-13.7-15.6-4.5 4zm10.1 11.6v-0.2 0.2z"/>
    <path d="m33.2 38.6l5.1 5.6 4.5-4-5.1-5.6c-4.4-4.8-10.6-7.6-17.1-7.6h-6.5v6h6.5c4.8 0 9.4 2.1 12.6 5.6z"/>
    <path d="m71.7 57.9l8 9.1h-5.3c-4.8 0-9.4-2.1-12.6-5.6l-5.5-6.1-4.5 4 5.5 6.1c4.4 4.8 10.6 7.6 17.1 7.6h4.4l-7.1 8 4.5 4 13.7-15.5-13.7-15.5-4.5 3.9zm10.1 11.7v-0.2 0.2z"/>
</svg>
