<svg xmlns="http://www.w3.org/2000/svg" xmlns:cc="http://creativecommons.org/ns#" xmlns:dc="http://purl.org/dc/elements/1.1/" xmlns:inkscape="http://www.inkscape.org/namespaces/inkscape" xmlns:rdf="http://www.w3.org/1999/02/22-rdf-syntax-ns#" xmlns:sodipodi="http://sodipodi.sourceforge.net/DTD/sodipodi-0.dtd" xmlns:svg="http://www.w3.org/2000/svg" x="0px" y="0px" enable-background="new 0 0 2000 2000" version="1.1" viewBox="0 0 1110.5343 1388.506375" xml:space="preserve">
    <path fill="#000000" d="m 555.35613,0 c -148.281,0 -287.749,57.725 -392.689,162.618 C 57.77513,267.511 1.2968837e-4,407.022 1.2968837e-4,555.401 -0.09987031,703.77905 57.63413,843.29005 162.57413,948.18105 c 104.894,104.89305 244.358,162.62405 392.686,162.62405 148.426,0 287.9854,-57.78 392.8774,-162.72005 216.57597,-216.528 216.48197,-568.89005 0,-785.46705 C 843.24553,57.772 703.73513,0 555.35613,0 Z m 0,94.326 c 123.147,0 238.9314,47.966 326.0914,134.983 179.74297,179.79 179.74297,472.30105 0,652.08905 -87.16,87.111 -202.9474,135.07505 -326.1874,135.07505 -123.144,0 -238.932,-47.91905 -325.998,-134.98305 -87.018,-87.064 -134.934,-202.897 -134.934,-326.08905 0,-123.193 47.966,-238.981 135.029,-326.092 87.067,-87.017 202.857,-134.983 325.999,-134.983 z m -131.26,282.642 c -12.063,0 -24.124,4.61 -33.344,13.832 -18.44,18.441 -18.44,48.25 0,66.691 l 97.958,97.959 -97.958,97.95805 c -18.44,18.441 -18.44,48.247 0,66.688 9.196,9.195 21.271,13.82 33.344,13.82 12.074,0 24.146,-4.625 33.344,-13.82 l 97.958,-97.959 97.958,97.959 c 9.198,9.195 21.273,13.82 33.348,13.82 12.073,0 24.148,-4.625 33.344,-13.82 18.44,-18.441 18.44,-48.247 0,-66.688 l -97.958,-97.95805 97.958,-97.959 c 18.44,-18.441 18.44,-48.25 0,-66.691 -18.441,-18.443 -48.251,-18.443 -66.692,0 l -97.958,97.958 -97.958,-97.958 c -9.221,-9.222 -21.283,-13.832 -33.344,-13.832 z" style=""/>
</svg>
