<svg xmlns="http://www.w3.org/2000/svg" xmlns:xlink="http://www.w3.org/1999/xlink" x="0px" y="0px" style="enable-background:new 0 0 100 100;" version="1.1" viewBox="0 0 100 125" xml:space="preserve">
    <g>
        <path d="M13.6,71.8h10.3V87h52.2V71.8h10.3c2.8,0,5-2.2,5-5V39.6v-2c0-2.8-2.2-5-5-5H76.1V13H23.9v19.6H13.6c-2.8,0-5,2.2-5,5v2   v27.2C8.6,69.5,10.8,71.8,13.6,71.8z M10.6,37.6c0-1.7,1.3-3,3-3h10.3h52.2h10.3c1.7,0,3,1.3,3,3v2c0,1.7-1.3,3-3,3H13.6   c-1.7,0-3-1.3-3-3V37.6z M25.9,15h48.2v17.6H25.9V15z M86.4,69.8H76.1V63H80c0.6,0,1-0.4,1-1s-0.4-1-1-1h-3.9H23.9H20   c-0.6,0-1,0.4-1,1s0.4,1,1,1h3.9v6.8H13.6c-1.7,0-3-1.3-3-3V43.6c0.8,0.6,1.9,1,3,1h72.8c1.1,0,2.2-0.4,3-1v23.2   C89.4,68.4,88.1,69.8,86.4,69.8z M25.9,85V63h48.2v22H25.9z"/>
        <path d="M17.3,47.6c-2.1,0-3.7,1.7-3.7,3.7s1.7,3.7,3.7,3.7s3.7-1.7,3.7-3.7S19.3,47.6,17.3,47.6z M17.3,53.1   c-0.9,0-1.7-0.8-1.7-1.7s0.8-1.7,1.7-1.7s1.7,0.8,1.7,1.7S18.2,53.1,17.3,53.1z"/>
        <path d="M27.3,47.6c-2.1,0-3.7,1.7-3.7,3.7s1.7,3.7,3.7,3.7s3.7-1.7,3.7-3.7S29.3,47.6,27.3,47.6z M27.3,53.1   c-0.9,0-1.7-0.8-1.7-1.7s0.8-1.7,1.7-1.7s1.7,0.8,1.7,1.7S28.2,53.1,27.3,53.1z"/>
        <path d="M68.2,78.3H31.8c-0.6,0-1,0.4-1,1s0.4,1,1,1h36.4c0.6,0,1-0.4,1-1S68.8,78.3,68.2,78.3z"/>
        <path d="M68.2,71.3H31.8c-0.6,0-1,0.4-1,1s0.4,1,1,1h36.4c0.6,0,1-0.4,1-1S68.8,71.3,68.2,71.3z"/>
        <path d="M31.8,66.3h36.4c0.6,0,1-0.4,1-1s-0.4-1-1-1H31.8c-0.6,0-1,0.4-1,1S31.2,66.3,31.8,66.3z"/>
    </g>
</svg>
