<svg xmlns="http://www.w3.org/2000/svg" x="0px" y="0px" data-name="Layer 1" viewBox="0 0 100 125">
    <title>
        lanjutan interface jadi
    </title>
    <path d="M63.75,35.71h-41L31.46,27a2,2,0,0,0-2.83-2.83L16.46,36.29a2,2,0,0,0-.25.3l0,.08a2,2,0,0,0-.14.26s0,.08,0,.12a2,2,0,0,0-.08.25,2,2,0,0,0,0,.79,2,2,0,0,0,.08.25s0,.08,0,.12a2,2,0,0,0,.14.26l0,.08a2,2,0,0,0,.25.3L28.63,51.29a2,2,0,0,0,2.83-2.83L22.7,39.71h41a16.38,16.38,0,0,1,0,32.75H17.88a2,2,0,0,0,0,4H63.75a20.38,20.38,0,0,0,0-40.75Z"/>
</svg>
