<svg xmlns="http://www.w3.org/2000/svg" xmlns:cc="http://creativecommons.org/ns#" xmlns:dc="http://purl.org/dc/elements/1.1/" xmlns:inkscape="http://www.inkscape.org/namespaces/inkscape" xmlns:rdf="http://www.w3.org/1999/02/22-rdf-syntax-ns#" xmlns:sodipodi="http://sodipodi.sourceforge.net/DTD/sodipodi-0.dtd" xmlns:svg="http://www.w3.org/2000/svg" x="0px" y="0px" version="1.1" viewBox="0 0 100 125">
    <g transform="translate(0,-952.36215)">
        <path d="M 50 6 C 44.494595 6 40 10.4946 40 16 L 40 42.4375 C 29.128714 44.76749 21 54.4654 21 66 A 2.0001995 2.0001995 0 0 0 23 68 L 24.96875 68 C 24.820604 76.882645 23.38359 84.052627 21.09375 91.40625 A 2.0001994 2.0001994 0 1 0 24.90625 92.59375 C 27.278717 84.97474 28.816554 77.317678 28.96875 68 L 71.03125 68 C 71.179564 76.281299 72.526753 83.201053 74.46875 90 L 64.6875 90 L 62.9375 82.53125 A 2.0001994 2.0001994 0 0 0 60.6875 80.96875 A 2.0001994 2.0001994 0 0 0 59.0625 83.4375 L 60.59375 90 L 52 90 L 52 83 A 2.0001994 2.0001994 0 0 0 49.78125 80.96875 A 2.0001994 2.0001994 0 0 0 48 83 L 48 90 L 39.40625 90 L 40.9375 83.4375 A 2.0001994 2.0001994 0 0 0 38.84375 80.96875 A 2.0001994 2.0001994 0 0 0 37.0625 82.53125 L 35.3125 90 L 31 90 A 2.0001994 2.0001994 0 1 0 31 94 L 77 94 A 2.0001994 2.0001994 0 0 0 78.90625 91.40625 C 76.61641 84.052627 75.179396 76.882645 75.03125 68 L 77 68 A 2.0001995 2.0001995 0 0 0 79 66 C 79 54.4654 70.871286 44.76749 60 42.4375 L 60 16 C 60 10.4946 55.505405 6 50 6 z M 50 10 C 53.358595 10 56 12.6414 56 16 L 56 44 A 2.0001995 2.0001995 0 0 0 57.71875 45.96875 C 66.818347 47.20546 73.892279 54.7371 74.8125 64 L 25.1875 64 C 26.107721 54.7371 33.181653 47.20546 42.28125 45.96875 A 2.0001995 2.0001995 0 0 0 44 44 L 44 16 C 44 12.6414 46.641405 10 50 10 z " style="font-size:medium;font-style:normal;font-variant:normal;font-weight:normal;font-stretch:normal;text-indent:0;text-align:start;text-decoration:none;line-height:normal;letter-spacing:normal;word-spacing:normal;text-transform:none;direction:ltr;block-progression:tb;writing-mode:lr-tb;text-anchor:start;baseline-shift:baseline;opacity:1;color:#000000;fill:#000000;fill-opacity:1;stroke:none;stroke-width:3.99999881000000010;marker:none;visibility:visible;display:inline;overflow:visible;enable-background:accumulate;font-family:Sans;-inkscape-font-specification:Sans" transform="translate(0,952.36215)"/>
    </g>
</svg>
