<svg xmlns="http://www.w3.org/2000/svg" xmlns:cc="http://creativecommons.org/ns#" xmlns:dc="http://purl.org/dc/elements/1.1/" xmlns:inkscape="http://www.inkscape.org/namespaces/inkscape" xmlns:rdf="http://www.w3.org/1999/02/22-rdf-syntax-ns#" xmlns:sodipodi="http://sodipodi.sourceforge.net/DTD/sodipodi-0.dtd" xmlns:svg="http://www.w3.org/2000/svg" x="0px" y="0px" version="1.1" viewBox="0 0 100 125">
    <g transform="translate(0,-952.36218)">
        <path fill="#000000" fill-opacity="1" stroke="none" marker="none" d="m 14,974.36218 c -3.8607,0 -6.9999999,3.1393 -6.9999999,7 l 0,42.00002 c 0,3.8607 3.1392999,7 6.9999999,7 l 72,0 c 3.8607,0 7,-3.1393 7,-7 l 0,-42.00002 c 0,-3.8607 -3.1393,-7 -7,-7 l -72,0 z m 0,2 72,0 c 2.7873,0 5,2.2127 5,5 l 0,42.00002 c 0,2.7873 -2.2127,5 -5,5 l -72,0 c -2.7873,0 -4.9999999,-2.2127 -4.9999999,-5 l 0,-42.00002 c 0,-2.7873 2.2126999,-5 4.9999999,-5 z m 67.125,9.9375 a 1.0001,1.0001 0 0 0 -0.5312,0.3125 L 53.5625,1010.956 c -2.0645,1.8597 -5.1264,1.861 -7.1875,0 L 19.4062,986.61218 a 1.0001,1.0001 0 0 0 -0.7187,-0.2812 1.0001,1.0001 0 0 0 -0.625,1.75 l 16.0937,14.53122 -16.0624,13.9688 a 1.0083551,1.0083551 0 1 0 1.3124,1.5312 l 16.125,-14 a 1.0001,1.0001 0 0 0 0.1563,-0.125 l 9.375,8.4688 c 2.7987,2.5269 7.0118,2.5228 9.8125,0 l 9.4375,-8.5 a 1.0001,1.0001 0 0 0 0.1563,0.1562 l 16.125,14 a 1.0083551,1.0083551 0 1 0 1.3124,-1.5312 l -16.0937,-13.9688 16.125,-14.53122 a 1.0001,1.0001 0 0 0 -0.8125,-1.7813 z" display="inline" overflow="visible" style="text-indent:0;text-transform:none;direction:ltr;block-progression:tb;baseline-shift:baseline;color:#000000;enable-background:accumulate;" visibility="visible"/>
    </g>
</svg>
