<svg xmlns="http://www.w3.org/2000/svg" x="0px" y="0px" data-name="Layer 1" viewBox="0 0 100 125">
    <title>
        53 all
    </title>
    <path d="M47.12,77.39a2,2,0,0,0-2-2H31.55V24.61H45.12a2,2,0,0,0,0-4H27.55V79.39H45.12A2,2,0,0,0,47.12,77.39Z"/>
    <path d="M72,51.24l.11-.15a2,2,0,0,0,.1-.18c0-.05.06-.1.08-.16a2,2,0,0,0,.07-.22s0-.1,0-.15a2,2,0,0,0,0-.37h0a2,2,0,0,0,0-.37c0-.05,0-.1,0-.15a2,2,0,0,0-.07-.22c0-.05-.05-.1-.08-.16a2,2,0,0,0-.1-.18L72,48.77l-.1-.13L59.16,34.88a2,2,0,1,0-2.93,2.72L65.87,48H43.18a2,2,0,0,0,0,4H65.87L56.23,62.4a2,2,0,0,0,2.93,2.72L71.92,51.36Z"/>
</svg>
