<svg xmlns="http://www.w3.org/2000/svg" x="0px" y="0px" data-name="Layer 1" viewBox="0 0 100 125">
    <title>
        lanjutan interface jadi
    </title>
    <path d="M82.13,72.46H36.25a16.38,16.38,0,0,1,0-32.75h41l-8.75,8.75a2,2,0,1,0,2.83,2.83L83.54,39.12a2,2,0,0,0,.25-.31s.05-.1.08-.15a1.17,1.17,0,0,0,.16-.39c0-.06,0-.11.05-.17a2,2,0,0,0,0-.78c0-.06,0-.11-.05-.17a1.17,1.17,0,0,0-.16-.39c0-.05-.05-.1-.08-.15a2,2,0,0,0-.25-.31L71.37,24.13A2,2,0,0,0,68.54,27l8.75,8.75h-41a20.38,20.38,0,0,0,0,40.75H82.13a2,2,0,0,0,0-4Z"/>
</svg>
