<svg xmlns="http://www.w3.org/2000/svg" xmlns:xlink="http://www.w3.org/1999/xlink" x="0px" y="0px" enable-background="new 0 0 100 100" version="1.1" viewBox="0 0 100 125" xml:space="preserve">
    <path d="M70.469,49.037c-0.143,0-0.28,0.017-0.422,0.02V23.117c0-7.112-13.349-12.684-30.389-12.684  c-17.042,0-30.393,5.571-30.393,12.684v49.607c0,7.111,13.35,12.682,30.393,12.682c5.801,0,11.437-0.665,16.296-1.925  c0.016-0.004,0.027-0.016,0.043-0.021c3.681,3.762,8.805,6.105,14.472,6.105c11.175,0,20.266-9.091,20.266-20.266  C90.734,58.127,81.644,49.037,70.469,49.037z M39.658,12.434c16.981,0,28.389,5.524,28.389,10.684  c0,5.159-11.407,10.683-28.389,10.683c-16.984,0-28.393-5.523-28.393-10.683C11.266,17.958,22.674,12.434,39.658,12.434z   M11.266,27.72c4.33,4.771,15.261,8.08,28.393,8.08c13.129,0,24.06-3.309,28.389-8.08v11.935c0,5.158-11.407,10.68-28.389,10.68  c-16.984,0-28.393-5.522-28.393-10.68V27.72z M11.266,44.256c4.33,4.77,15.261,8.078,28.393,8.078  c13.129,0,24.06-3.308,28.389-8.078v4.943c-8.877,1.066-16.109,7.898-17.559,16.835c-3.439,0.552-7.08,0.835-10.83,0.835  c-16.984,0-28.393-5.523-28.393-10.682V44.256z M39.658,83.406c-16.984,0-28.393-5.523-28.393-10.682V60.79  c4.33,4.771,15.261,8.079,28.393,8.079c3.653,0,7.204-0.27,10.583-0.78c-0.024,0.404-0.038,0.809-0.038,1.212  c0,4.702,1.624,9.024,4.321,12.467C50.04,82.836,44.929,83.406,39.658,83.406z M70.469,87.566c-10.071,0-18.266-8.194-18.266-18.266  c0-0.757,0.047-1.52,0.141-2.27c1.129-9.118,8.921-15.994,18.125-15.994c10.071,0,18.266,8.193,18.266,18.264  C88.734,79.372,80.54,87.566,70.469,87.566z M72.515,79.164c-4.801,0.998-9.606-1.583-11.417-6.144  c-1.639-4.131-0.372-8.756,2.986-11.499l-0.272,1.832c-0.081,0.546,0.296,1.055,0.843,1.136c0.05,0.007,0.099,0.011,0.147,0.011  c0.487,0,0.914-0.356,0.988-0.854l0.566-3.814c0.039-0.262-0.028-0.529-0.186-0.742c-0.158-0.213-0.395-0.354-0.657-0.394  l-3.816-0.566c-0.546-0.072-1.054,0.296-1.136,0.843c-0.081,0.546,0.296,1.055,0.843,1.136l1.058,0.157  c-3.762,3.317-5.129,8.687-3.224,13.492c1.857,4.678,6.339,7.621,11.203,7.62c0.819,0,1.65-0.083,2.481-0.257  c0.54-0.112,0.888-0.642,0.774-1.183C73.585,79.397,73.061,79.047,72.515,79.164z M81.699,64.844  c-2.171-5.468-7.926-8.565-13.683-7.361c-0.541,0.112-0.888,0.643-0.774,1.183c0.111,0.54,0.641,0.887,1.183,0.774  c4.801-0.998,9.604,1.58,11.415,6.142c1.578,3.979,0.468,8.421-2.615,11.193l0.247-1.662c0.081-0.546-0.296-1.055-0.843-1.136  c-0.547-0.071-1.054,0.296-1.136,0.843l-0.566,3.815c-0.039,0.262,0.028,0.529,0.186,0.742c0.158,0.213,0.395,0.354,0.657,0.394  l3.816,0.566c0.05,0.007,0.099,0.011,0.147,0.011c0.487,0,0.914-0.356,0.988-0.854c0.081-0.546-0.296-1.055-0.843-1.136  l-1.229-0.183C82.278,74.848,83.574,69.574,81.699,64.844z"/>
</svg>
